<?xml version="1.0" encoding="utf-8"?>
<!-- Generator: Adobe Illustrator 25.4.1, SVG Export Plug-In . SVG Version: 6.00 Build 0)  -->
<svg version="1.1" id="Camada_2" xmlns="http://www.w3.org/2000/svg" xmlns:xlink="http://www.w3.org/1999/xlink" x="0px" y="0px"
	 viewBox="0 0 1080 1080" style="enable-background:new 0 0 1080 1080;" xml:space="preserve">
<style type="text/css">
	.st0{fill:none;stroke:#1E1E1C;stroke-miterlimit:10;}
	.st1{fill:#FFDB05;}
	.st2{fill:url(#SVGID_1_);}
	.st3{fill:none;stroke:#FFDB05;stroke-width:11;stroke-miterlimit:10;}
	.st4{fill:none;stroke:#FFDB05;stroke-width:5;stroke-miterlimit:10;}
	.st5{fill:none;stroke:#F7CD00;stroke-width:12;stroke-miterlimit:10;}
	.st6{fill:none;stroke:#F7CD00;stroke-width:5;stroke-miterlimit:10;}
	.st7{fill:#2A78A0;}
	.st8{fill:#C7DFF5;}
	.st9{font-family:'Ubuntu-Bold';}
	.st10{font-size:111.1919px;}
</style>
<g>
	<circle class="st0" cx="516.98" cy="540" r="108.57"/>
	<path class="st1" d="M900.81,540c0-6.2-1.86-9.54-1.86-9.54l-34.83-55.4l9.91-55.03c3.35-30.49-7.31-35.32-7.31-35.32
		s-41.39-29.5-48.71-35.32c-6.32-5.08-6.94-8.06-6.94-8.06s-8.43-25.28-12.15-52.05s-24.91-31.85-24.91-31.85
		s-41.52-9.67-49.33-10.91c-4.83-0.74-9.3-4.09-12.02-6.44c-1.49-1.24-2.73-2.6-3.84-4.21c-6.57-8.55-35.57-46.72-40.65-51.8
		c-5.82-5.82-14.62-3.59-14.62-3.59s-31.85,3.59-49.82,7.68c-17.97,4.09-22.56,1.36-22.56,1.36s-43.38-25.65-50.81-33.09
		s-13.51-7.93-13.51-7.93h-1.74h-1.74c0,0-5.95,0.5-13.51,7.93c-7.44,7.44-50.81,33.09-50.81,33.09s-4.71,2.73-22.56-1.36
		c-17.85-4.09-49.82-7.68-49.82-7.68s-8.8-2.23-14.62,3.59c-5.08,5.08-34.21,43.25-40.65,51.8c-1.12,1.49-2.35,2.97-3.84,4.21
		c-2.73,2.35-7.19,5.7-12.02,6.44c-7.68,1.24-49.33,10.91-49.33,10.91s-21.32,5.08-24.91,31.85c-3.72,26.77-12.15,52.05-12.15,52.05
		s-0.62,2.97-6.94,8.06c-7.31,5.95-48.71,35.32-48.71,35.32s-10.66,4.96-7.31,35.32l9.91,55.03l-34.83,55.4c0,0-1.86,3.35-1.86,9.54
		c0,6.2,1.86,9.54,1.86,9.54l34.83,55.4l-9.91,55.03c-3.35,30.49,7.31,35.32,7.31,35.32s41.39,29.5,48.71,35.32
		c6.32,5.08,6.94,8.06,6.94,8.06s8.43,25.28,12.15,52.05c3.72,26.77,24.91,31.85,24.91,31.85s41.52,9.67,49.33,10.91
		c4.83,0.74,9.3,4.09,12.02,6.44c1.49,1.24,2.73,2.6,3.84,4.21c6.57,8.55,35.57,46.72,40.65,51.8c5.82,5.82,14.62,3.59,14.62,3.59
		s31.85-3.59,49.82-7.68c17.85-4.09,22.56-1.36,22.56-1.36s43.38,25.65,50.81,33.09c7.44,7.44,13.51,7.93,13.51,7.93h1.74h1.74
		c0,0,5.95-0.5,13.51-7.93c7.44-7.44,50.81-33.09,50.81-33.09s4.71-2.73,22.56,1.36c17.85,4.09,49.82,7.68,49.82,7.68
		s8.8,2.23,14.62-3.59c5.08-5.08,34.21-43.25,40.65-51.8c1.12-1.49,2.35-2.97,3.84-4.21c2.73-2.35,7.19-5.7,12.02-6.44
		c7.68-1.24,49.33-10.91,49.33-10.91s21.32-5.08,24.91-31.85c3.72-26.77,12.15-52.05,12.15-52.05s0.62-2.97,6.94-8.06
		c7.31-5.95,48.71-35.32,48.71-35.32s10.66-4.96,7.31-35.32l-9.91-55.03l34.83-55.4C898.95,549.54,900.81,546.07,900.81,540z"/>
	<linearGradient id="SVGID_1_" gradientUnits="userSpaceOnUse" x1="515.2497" y1="171.4752" x2="515.2497" y2="908.4008">
		<stop  offset="0" style="stop-color:#FAED6B"/>
		<stop  offset="1" style="stop-color:#FFEC3C"/>
	</linearGradient>
	<path class="st2" d="M878.22,540c0-5.79-1.69-8.93-1.69-8.93l-32.82-52.13l9.29-51.77c3.14-28.6-6.88-33.3-6.88-33.3
		s-38.98-27.75-45.85-33.3c-6.03-4.83-6.52-7.6-6.52-7.6s-7.96-23.77-11.34-48.99c-3.5-25.22-23.41-30.05-23.41-30.05
		s-39.1-9.05-46.34-10.26c-4.59-0.72-8.81-3.86-11.22-6.03c-1.33-1.21-2.53-2.53-3.62-3.98c-6.15-8.08-33.43-43.92-38.25-48.75
		c-5.43-5.43-13.76-3.38-13.76-3.38s-30.05,3.38-46.82,7.24c-16.77,3.86-21.24,1.33-21.24,1.33s-40.79-24.13-47.91-31.13
		c-7-7-12.67-7.48-12.67-7.48h-1.69h-1.69c0,0-5.67,0.36-12.67,7.48c-7,7-47.91,31.13-47.91,31.13s-4.34,2.53-21.24-1.33
		c-16.77-3.86-46.82-7.24-46.82-7.24s-8.33-2.05-13.76,3.38c-4.83,4.83-32.1,40.67-38.25,48.75c-1.09,1.45-2.29,2.78-3.62,3.98
		c-2.53,2.17-6.76,5.31-11.22,6.03c-7.24,1.21-46.34,10.26-46.34,10.26s-20.03,4.83-23.41,30.05c-3.5,25.22-11.34,48.99-11.34,48.99
		s-0.6,2.78-6.52,7.6c-6.88,5.55-45.85,33.3-45.85,33.3s-10.02,4.71-6.88,33.3l9.29,51.77l-33.3,52.01c0,0-1.69,3.14-1.69,8.93
		c0,5.79,1.69,8.93,1.69,8.93l32.82,52.13l-9.29,51.77c-3.14,28.6,6.88,33.3,6.88,33.3s38.98,27.75,45.85,33.3
		c6.03,4.83,6.52,7.6,6.52,7.6s7.96,23.77,11.34,48.99c3.38,25.22,23.41,30.05,23.41,30.05s39.1,9.05,46.34,10.26
		c4.59,0.72,8.81,3.86,11.22,6.03c1.33,1.21,2.53,2.53,3.62,3.98c6.15,8.08,33.43,43.92,38.25,48.75
		c5.43,5.43,13.76,3.38,13.76,3.38s30.05-3.38,46.82-7.24c16.77-3.86,21.24-1.33,21.24-1.33s40.79,24.13,47.91,31.13
		c7,7,12.67,7.48,12.67,7.48h1.69h1.69c0,0,5.67-0.36,12.67-7.48c7-7,47.91-31.13,47.91-31.13s4.34-2.53,21.24,1.33
		c16.77,3.86,46.82,7.24,46.82,7.24s8.33,2.05,13.76-3.38c4.83-4.83,32.1-40.67,38.25-48.75c1.09-1.45,2.29-2.78,3.62-3.98
		c2.53-2.17,6.76-5.31,11.22-6.03c7.24-1.21,46.34-10.26,46.34-10.26s20.03-4.83,23.41-30.05c3.5-25.22,11.34-48.99,11.34-48.99
		s0.6-2.78,6.52-7.6c6.88-5.55,45.85-33.3,45.85-33.3s10.02-4.71,6.88-33.3l-9.29-51.77l32.82-52.13
		C876.41,548.93,878.22,545.67,878.22,540z"/>
	<path class="st3" d="M707.77,540c0,105.27-85.38,190.8-190.8,190.8S326.32,645.27,326.32,540s85.38-190.8,190.8-190.8
		C622.39,349.2,707.77,434.58,707.77,540z"/>
	<path class="st4" d="M687.97,540c0,94.34-76.51,170.98-170.98,170.98S346.13,634.34,346.13,540s76.51-170.98,170.98-170.98
		C611.45,369.02,687.97,445.53,687.97,540z"/>
	<path class="st5" d="M516.98,239.29c-166.01,0-300.58,134.57-300.58,300.58c0,5.08,0.14,10.16,0.41,15.24
		c0.14,2.2,0.27,4.39,0.41,6.59c2.75,38.72,12.91,75.38,28.97,108.61c1.24,2.47,2.33,4.81,3.57,7.28
		c11.4,22.24,25.54,42.7,41.88,61.24c12.77,14.42,26.78,27.6,42.02,39.27c50.81,39.13,114.38,62.48,183.45,62.48
		c3.84,0,7.55-0.14,11.26-0.27c26.64-0.96,52.32-5.36,76.76-12.91c123.03-37.62,212.56-152.14,212.56-287.53
		C817.69,374,683.13,239.29,516.98,239.29z"/>
	<path class="st6" d="M516.97,218.77c-177.34,0-321.1,143.75-321.1,321.1c0,5.43,0.15,10.85,0.44,16.28
		c0.15,2.35,0.29,4.69,0.44,7.04c2.93,41.37,13.79,80.53,30.95,116.03c1.32,2.64,2.49,5.13,3.81,7.77
		c12.17,23.76,27.28,45.62,44.74,65.42c13.64,15.4,28.6,29.48,44.89,41.95c54.27,41.81,122.19,66.74,195.97,66.74
		c4.11,0,8.07-0.15,12.03-0.29c28.46-1.03,55.89-5.72,82-13.79c131.43-40.19,227.07-162.53,227.07-307.16
		C838.22,362.67,694.46,218.77,516.97,218.77z"/>
	<g>
		<polygon class="st1" points="515.25,258.92 504.82,280.06 481.49,283.45 498.37,299.9 494.39,323.13 515.25,312.16 536.11,323.13 
			532.13,299.9 549.01,283.45 525.68,280.06 		"/>
		<polygon class="st1" points="417.7,287.09 415.6,306.17 398.69,315.27 416.19,323.16 419.62,342.05 432.53,327.84 451.56,330.43 
			442.03,313.75 450.37,296.46 431.57,300.36 		"/>
		<polygon class="st1" points="349.02,338.63 352.62,353.35 342.53,364.66 357.65,365.79 365.28,378.88 371.03,364.86 
			385.84,361.64 374.27,351.84 375.79,336.76 362.9,344.73 		"/>
		<polygon class="st1" points="612.8,287.09 614.9,306.17 631.81,315.27 614.31,323.16 610.88,342.05 597.97,327.84 578.94,330.43 
			588.47,313.75 580.13,296.46 598.93,300.36 		"/>
		<polygon class="st1" points="681.48,338.63 677.88,353.35 687.97,364.66 672.85,365.79 665.21,378.88 659.47,364.86 
			644.66,361.64 656.23,351.84 654.71,336.76 667.6,344.73 		"/>
	</g>
	<g>
		<polygon class="st7" points="118,635.31 36.28,649.27 99.1,731.86 68.85,830.45 216.98,805.06 140.2,761.04 		"/>
		<path class="st7" d="M215.14,799.04c0,0-14.83-14.54-5.82-49.44l-60.49,9.89L215.14,799.04z"/>
		<polygon class="st7" points="144.76,755.13 108.02,546.8 908.77,405.65 946.19,613.69 		"/>
		<path class="st7" d="M883.28,630.07c0,0,20.55,24.43,11.83,48.71l49.3-59.33L883.28,630.07z"/>
		<polygon class="st7" points="896.7,684.89 952.11,617.42 930.97,490.76 1013.04,476.22 981.92,577 1043.72,659.3 		"/>
	</g>
	<text transform="matrix(0.9872 -0.1597 0.1597 0.9872 206.4506 672.0687)" class="st8 st9 st10">CONQUISTA</text>
</g>
</svg>
