<?xml version="1.0" encoding="utf-8"?>
<!-- Generator: Adobe Illustrator 25.4.1, SVG Export Plug-In . SVG Version: 6.00 Build 0)  -->
<svg version="1.1" id="Camada_2" xmlns="http://www.w3.org/2000/svg" xmlns:xlink="http://www.w3.org/1999/xlink" x="0px" y="0px"
	 viewBox="0 0 1080 1080" style="enable-background:new 0 0 1080 1080;" xml:space="preserve">
<style type="text/css">
	.st0{fill:none;stroke:#000000;stroke-width:8;stroke-miterlimit:10;}
	.st1{fill:none;stroke:#000000;stroke-width:15;stroke-miterlimit:10;}
</style>
<g>
	<path class="st0" d="M582.24,880.79h-84.47c-91.64,0-165.93-74.29-165.93-165.93V365.15c0-91.64,74.29-165.93,165.93-165.93h84.47
		c91.64,0,165.93,74.29,165.93,165.93v349.71C748.17,806.5,673.88,880.79,582.24,880.79z"/>
	<path class="st1" d="M540,422.04L540,422.04c-15.05,0-27.25-12.2-27.25-27.25v-97.54c0-15.05,12.2-27.25,27.25-27.25l0,0
		c15.05,0,27.25,12.2,27.25,27.25v97.54C567.25,409.83,555.05,422.04,540,422.04z"/>
</g>
</svg>
