<?xml version="1.0" encoding="utf-8"?>
<!-- Generator: Adobe Illustrator 25.4.1, SVG Export Plug-In . SVG Version: 6.00 Build 0)  -->
<svg version="1.1" xmlns="http://www.w3.org/2000/svg" xmlns:xlink="http://www.w3.org/1999/xlink" x="0px" y="0px"
	 viewBox="0 0 48 48" style="enable-background:new 0 0 48 48;" xml:space="preserve">
<style type="text/css">
	.st0{fill:#253031;}
	.st1{fill:none;stroke:#253031;stroke-width:0.75;stroke-miterlimit:10;}
	.st2{fill:none;stroke:#253031;stroke-width:0.25;stroke-miterlimit:10;}
</style>
<g id="Camada_2">
</g>
<g id="Camada_1">
	<g>
		<path class="st0" d="M27.6,36.1L29,39H19l1.4-2.9H27.6z"/>
		<path class="st0" d="M32.6,41.9H15.4c0-1.6,1.3-2.9,2.9-2.9h11.4C31.3,39,32.6,40.3,32.6,41.9C32.6,41.9,32.6,41.9,32.6,41.9z"/>
		<path class="st0" d="M46.1,30.4v4.3c0,0.8-0.6,1.4-1.4,1.4H3.3c-0.8,0-1.4-0.6-1.4-1.4v-4.3H46.1z"/>
		<path class="st0" d="M44.3,19.8L34.5,16c-0.2-0.1-0.4,0-0.6,0.1c-0.1,0.1-0.2,0.4-0.1,0.6l3.9,9.7c0.1,0.2,0.2,0.3,0.5,0.3
			c0.2,0,0.4-0.1,0.5-0.3l1.4-2.4l3.6,3.6c0.2,0.2,0.5,0.2,0.7,0l1.2-1.2c0.2-0.2,0.2-0.5,0-0.7l-1.9-1.9l-1.7-1.7l2.5-1.3
			c0.2-0.1,0.3-0.3,0.3-0.5C44.7,20.1,44.5,19.9,44.3,19.8z"/>
		<g>
			<path class="st0" d="M44.7,6.9c0.4,0,0.7,0.3,0.7,0.7v22.1H2.6V7.6c0-0.4,0.3-0.7,0.7-0.7H44.7 M44.7,6.1H3.3
				c-0.8,0-1.4,0.6-1.4,1.4v22.9h44.3V7.6C46.1,6.8,45.5,6.1,44.7,6.1L44.7,6.1z"/>
		</g>
		<g>
			<path class="st1" d="M31.1,26.8H16.9c-0.8,0-1.4-0.6-1.4-1.4V11.2c0-0.8,0.6-1.4,1.4-1.4h14.2c0.8,0,1.4,0.6,1.4,1.4v14.2
				C32.5,26.2,31.9,26.8,31.1,26.8z"/>
			<path class="st0" d="M15.5,11.2v1.5h17.1v-1.5c0-0.8-0.6-1.4-1.4-1.4H16.9C16.1,9.7,15.5,10.4,15.5,11.2z M17.8,11.9
				c-0.4,0-0.7-0.3-0.7-0.7s0.3-0.7,0.7-0.7s0.7,0.3,0.7,0.7S18.2,11.9,17.8,11.9z M19.7,11.9c-0.4,0-0.7-0.3-0.7-0.7
				s0.3-0.7,0.7-0.7s0.7,0.3,0.7,0.7S20.1,11.9,19.7,11.9z M21.7,11.9c-0.4,0-0.7-0.3-0.7-0.7s0.3-0.7,0.7-0.7s0.7,0.3,0.7,0.7
				S22.1,11.9,21.7,11.9z"/>
			<rect x="23.4" y="14.3" class="st0" width="7.8" height="3.7"/>
			<rect x="27.3" y="19.2" class="st0" width="3.9" height="3.9"/>
			<g>
				<line class="st2" x1="16.9" y1="15" x2="21" y2="15"/>
				<line class="st2" x1="16.9" y1="16.7" x2="21" y2="16.7"/>
				<line class="st2" x1="16.9" y1="18.3" x2="21" y2="18.3"/>
				<line class="st2" x1="16.9" y1="20" x2="21" y2="20"/>
				<line class="st2" x1="16.9" y1="21.7" x2="21" y2="21.7"/>
				<line class="st2" x1="16.9" y1="23.4" x2="21" y2="23.4"/>
			</g>
			<line class="st2" x1="22" y1="13.8" x2="22" y2="23.9"/>
			<g>
				<path class="st0" d="M15.5,24.7h17.1v0.7c0,0.8-0.6,1.4-1.4,1.4H16.9c-0.8,0-1.4-0.6-1.4-1.4V24.7z"/>
			</g>
		</g>
	</g>
</g>
</svg>
