<?xml version="1.0" encoding="utf-8"?>
<!-- Generator: Adobe Illustrator 25.4.1, SVG Export Plug-In . SVG Version: 6.00 Build 0)  -->
<svg version="1.1" id="Camada_2" xmlns="http://www.w3.org/2000/svg" xmlns:xlink="http://www.w3.org/1999/xlink" x="0px" y="0px"
	 viewBox="0 0 500 500" style="enable-background:new 0 0 500 500;" xml:space="preserve">
<style type="text/css">
	.st0{fill:#8A7D58;}
	.st1{fill-rule:evenodd;clip-rule:evenodd;fill:#BCAB79;}
	.st2{fill:#BCAB79;}
	.st3{fill:none;stroke:#1E1E1C;stroke-miterlimit:10;}
	.st4{fill:#FFDB05;}
	.st5{fill:url(#SVGID_1_);}
	.st6{fill:none;stroke:#FFDB05;stroke-width:0.5;stroke-miterlimit:10;}
	.st7{fill:none;stroke:#F7CD00;stroke-width:0.5;stroke-miterlimit:10;}
	.st8{fill:none;stroke:#F7CD00;stroke-width:0.25;stroke-miterlimit:10;}
	.st9{fill:#2A78A0;}
	.st10{fill:#C7DFF5;}
	.st11{font-family:'Ubuntu-Bold';}
	.st12{font-size:5.1108px;}
</style>
<g>
	<g>
		<g>
			<rect x="75" y="40" class="st0" width="350" height="420"/>
			<g>
				
					<image style="overflow:visible;opacity:0.75;" width="368" height="76" xlink:href="3609C850.png"  transform="matrix(1 0 0 1 67 32)">
				</image>
				<g>
					<path class="st1" d="M425,40H75v57.7h72.4c5.3,0,10.3-1.9,13.2-5.2l34.6-37.9c3-3.3,7.9-5.2,13.2-5.2H425V40z"/>
				</g>
			</g>
			<g>
				
					<image style="overflow:visible;opacity:0.75;" width="368" height="139" xlink:href="3609C853.png"  transform="matrix(1 0 0 1 67 331)">
				</image>
				<g>
					<path class="st2" d="M75,460h350V339H191.5c-5.3,0-10.3,2-13.2,5.2l-20.4,22.4c-3,3.3-7.9,5.2-13.2,5.2H75V460z"/>
				</g>
			</g>
		</g>
		<circle class="st3" cx="133.1" cy="69.2" r="5"/>
		<path class="st4" d="M150.7,69.2c0-0.3-0.1-0.4-0.1-0.4l-1.6-2.5l0.5-2.5c0.2-1.4-0.3-1.6-0.3-1.6s-1.9-1.4-2.2-1.6
			c-0.3-0.2-0.3-0.4-0.3-0.4s-0.4-1.2-0.6-2.4s-1.1-1.5-1.1-1.5s-1.9-0.4-2.3-0.5c-0.2,0-0.4-0.2-0.6-0.3c-0.1-0.1-0.1-0.1-0.2-0.2
			c-0.3-0.4-1.6-2.1-1.9-2.4c-0.3-0.3-0.7-0.2-0.7-0.2s-1.5,0.2-2.3,0.4c-0.8,0.2-1,0.1-1,0.1s-2-1.2-2.3-1.5
			c-0.3-0.3-0.6-0.4-0.6-0.4H133h-0.1c0,0-0.3,0-0.6,0.4c-0.3,0.3-2.3,1.5-2.3,1.5s-0.2,0.1-1-0.1c-0.8-0.2-2.3-0.4-2.3-0.4
			s-0.4-0.1-0.7,0.2c-0.2,0.2-1.6,2-1.9,2.4c-0.1,0.1-0.1,0.1-0.2,0.2c-0.1,0.1-0.3,0.3-0.6,0.3c-0.4,0.1-2.3,0.5-2.3,0.5
			s-1,0.2-1.1,1.5c-0.2,1.2-0.6,2.4-0.6,2.4s0,0.1-0.3,0.4c-0.3,0.3-2.2,1.6-2.2,1.6s-0.5,0.2-0.3,1.6l0.5,2.5l-1.6,2.5
			c0,0-0.1,0.2-0.1,0.4c0,0.3,0.1,0.4,0.1,0.4l1.6,2.5l-0.5,2.5c-0.2,1.4,0.3,1.6,0.3,1.6s1.9,1.4,2.2,1.6c0.3,0.2,0.3,0.4,0.3,0.4
			s0.4,1.2,0.6,2.4c0.2,1.2,1.1,1.5,1.1,1.5s1.9,0.4,2.3,0.5c0.2,0,0.4,0.2,0.6,0.3c0.1,0.1,0.1,0.1,0.2,0.2
			c0.3,0.4,1.6,2.1,1.9,2.4c0.3,0.3,0.7,0.2,0.7,0.2s1.5-0.2,2.3-0.4c0.8-0.2,1-0.1,1-0.1s2,1.2,2.3,1.5c0.3,0.3,0.6,0.4,0.6,0.4
			h0.1h0.1c0,0,0.3,0,0.6-0.4c0.3-0.3,2.3-1.5,2.3-1.5s0.2-0.1,1,0.1s2.3,0.4,2.3,0.4s0.4,0.1,0.7-0.2c0.2-0.2,1.6-2,1.9-2.4
			c0.1-0.1,0.1-0.1,0.2-0.2c0.1-0.1,0.3-0.3,0.6-0.3c0.4-0.1,2.3-0.5,2.3-0.5s1-0.2,1.1-1.5c0.2-1.2,0.6-2.4,0.6-2.4s0-0.1,0.3-0.4
			c0.3-0.3,2.2-1.6,2.2-1.6s0.5-0.2,0.3-1.6l-0.5-2.5l1.6-2.5C150.7,69.6,150.7,69.4,150.7,69.2z"/>
		
			<linearGradient id="SVGID_1_" gradientUnits="userSpaceOnUse" x1="133.0228" y1="457.7705" x2="133.0228" y2="423.9012" gradientTransform="matrix(1 0 0 -1 0 510)">
			<stop  offset="0" style="stop-color:#FAED6B"/>
			<stop  offset="1" style="stop-color:#FFEC3C"/>
		</linearGradient>
		<path class="st5" d="M149.7,69.2c0-0.3-0.1-0.4-0.1-0.4l-1.5-2.4l0.4-2.4c0.1-1.3-0.3-1.5-0.3-1.5s-1.8-1.3-2.1-1.5
			c-0.3-0.2-0.3-0.3-0.3-0.3s-0.4-1.1-0.5-2.3c-0.2-1.2-1.1-1.4-1.1-1.4s-1.8-0.4-2.1-0.5c-0.2,0-0.4-0.2-0.5-0.3
			c-0.1-0.1-0.1-0.1-0.2-0.2c-0.3-0.4-1.5-2-1.8-2.2c-0.2-0.2-0.6-0.2-0.6-0.2s-1.4,0.2-2.2,0.3c-0.8,0.2-1,0.1-1,0.1
			s-1.9-1.1-2.2-1.4c-0.3-0.3-0.6-0.3-0.6-0.3H133H133c0,0-0.3,0-0.6,0.3c-0.3,0.3-2.2,1.4-2.2,1.4s-0.2,0.1-1-0.1
			c-0.8-0.2-2.2-0.3-2.2-0.3s-0.4-0.1-0.6,0.2c-0.2,0.2-1.5,1.9-1.8,2.2c-0.1,0.1-0.1,0.1-0.2,0.2c-0.1,0.1-0.3,0.2-0.5,0.3
			c-0.3,0.1-2.1,0.5-2.1,0.5s-0.9,0.2-1.1,1.4c-0.2,1.2-0.5,2.3-0.5,2.3s0,0.1-0.3,0.3c-0.3,0.3-2.1,1.5-2.1,1.5s-0.5,0.2-0.3,1.5
			l0.4,2.4l-1.5,2.4c0,0-0.1,0.1-0.1,0.4c0,0.3,0.1,0.4,0.1,0.4l1.5,2.4l-0.4,2.4c-0.1,1.3,0.3,1.5,0.3,1.5s1.8,1.3,2.1,1.5
			c0.3,0.2,0.3,0.3,0.3,0.3s0.4,1.1,0.5,2.3c0.2,1.2,1.1,1.4,1.1,1.4s1.8,0.4,2.1,0.5c0.2,0,0.4,0.2,0.5,0.3
			c0.1,0.1,0.1,0.1,0.2,0.2c0.3,0.4,1.5,2,1.8,2.2c0.2,0.2,0.6,0.2,0.6,0.2s1.4-0.2,2.2-0.3s1-0.1,1-0.1s1.9,1.1,2.2,1.4
			c0.3,0.3,0.6,0.3,0.6,0.3h0.1h0.1c0,0,0.3,0,0.6-0.3c0.3-0.3,2.2-1.4,2.2-1.4s0.2-0.1,1,0.1c0.8,0.2,2.2,0.3,2.2,0.3
			s0.4,0.1,0.6-0.2c0.2-0.2,1.5-1.9,1.8-2.2c0.1-0.1,0.1-0.1,0.2-0.2c0.1-0.1,0.3-0.2,0.5-0.3c0.3-0.1,2.1-0.5,2.1-0.5
			s0.9-0.2,1.1-1.4c0.2-1.2,0.5-2.3,0.5-2.3s0-0.1,0.3-0.3c0.3-0.3,2.1-1.5,2.1-1.5s0.5-0.2,0.3-1.5l-0.4-2.4l1.5-2.4
			C149.6,69.6,149.7,69.4,149.7,69.2z"/>
		<path class="st6" d="M141.9,69.2c0,4.8-3.9,8.8-8.8,8.8c-4.8,0-8.8-3.9-8.8-8.8s3.9-8.8,8.8-8.8C137.9,60.4,141.9,64.3,141.9,69.2
			z"/>
		<path class="st6" d="M141,69.2c0,4.3-3.5,7.9-7.9,7.9c-4.3,0-7.9-3.5-7.9-7.9c0-4.3,3.5-7.9,7.9-7.9C137.4,61.3,141,64.8,141,69.2
			z"/>
		<path class="st7" d="M133.1,55.3c-7.6,0-13.8,6.2-13.8,13.8c0,0.2,0,0.5,0,0.7c0,0.1,0,0.2,0,0.3c0.1,1.8,0.6,3.5,1.3,5
			c0.1,0.1,0.1,0.2,0.2,0.3c0.5,1,1.2,2,1.9,2.8c0.6,0.7,1.2,1.3,1.9,1.8c2.3,1.8,5.3,2.9,8.4,2.9c0.2,0,0.3,0,0.5,0
			c1.2,0,2.4-0.2,3.5-0.6c5.7-1.7,9.8-7,9.8-13.2C146.9,61.5,140.7,55.3,133.1,55.3z"/>
		<path class="st8" d="M133.1,54.4c-8.2,0-14.8,6.6-14.8,14.8c0,0.2,0,0.5,0,0.7c0,0.1,0,0.2,0,0.3c0.1,1.9,0.6,3.7,1.4,5.3
			c0.1,0.1,0.1,0.2,0.2,0.4c0.6,1.1,1.3,2.1,2.1,3c0.6,0.7,1.3,1.4,2.1,1.9c2.5,1.9,5.6,3.1,9,3.1c0.2,0,0.4,0,0.6,0
			c1.3,0,2.6-0.3,3.8-0.6c6-1.8,10.4-7.5,10.4-14.1C147.9,61,141.3,54.4,133.1,54.4z"/>
		<g>
			<polygon class="st4" points="133,56.2 132.5,57.2 131.5,57.4 132.2,58.1 132.1,59.2 133,58.7 134,59.2 133.8,58.1 134.6,57.4 
				133.5,57.2 			"/>
			<polygon class="st4" points="128.5,57.5 128.4,58.4 127.7,58.8 128.5,59.2 128.6,60.1 129.2,59.4 130.1,59.5 129.7,58.8 130,58 
				129.2,58.2 			"/>
			<polygon class="st4" points="125.4,59.9 125.5,60.6 125.1,61.1 125.8,61.2 126.1,61.8 126.4,61.1 127.1,61 126.5,60.5 
				126.6,59.8 126,60.2 			"/>
			<polygon class="st4" points="137.5,57.5 137.6,58.4 138.4,58.8 137.6,59.2 137.4,60.1 136.8,59.4 136,59.5 136.4,58.8 136,58 
				136.9,58.2 			"/>
			<polygon class="st4" points="140.7,59.9 140.5,60.6 141,61.1 140.3,61.2 139.9,61.8 139.7,61.1 139,61 139.5,60.5 139.4,59.8 
				140,60.2 			"/>
		</g>
		<g>
			<polygon class="st9" points="114.8,73.5 111,74.2 113.9,78 112.5,82.5 119.3,81.3 115.8,79.3 			"/>
			<path class="st9" d="M119.2,81.1c0,0-0.7-0.7-0.3-2.3l-2.8,0.5L119.2,81.1z"/>
			<polygon class="st9" points="116,79.1 114.3,69.5 151.1,63 152.8,72.6 			"/>
			<path class="st9" d="M149.9,73.3c0,0,0.9,1.1,0.5,2.2l2.3-2.7L149.9,73.3z"/>
			<polygon class="st9" points="150.6,75.8 153.1,72.7 152.1,66.9 155.9,66.2 154.5,70.9 157.3,74.7 			"/>
		</g>
		<text transform="matrix(0.9872 -0.1597 0.1597 0.9872 118.8305 75.2367)" class="st10 st11 st12">CONQUISTA</text>
	</g>
</g>
</svg>
