<?xml version="1.0" encoding="utf-8"?>
<!-- Generator: Adobe Illustrator 25.4.1, SVG Export Plug-In . SVG Version: 6.00 Build 0)  -->
<svg version="1.1" id="Camada_2_00000049215453794145074290000012740981649932078235_"
	 xmlns="http://www.w3.org/2000/svg" xmlns:xlink="http://www.w3.org/1999/xlink" x="0px" y="0px" viewBox="0 0 50 50"
	 style="enable-background:new 0 0 50 50;" xml:space="preserve">
<style type="text/css">
	.st0{fill:none;stroke:#1E1E1C;stroke-miterlimit:10;}
	.st1{fill:#FFDB05;}
	.st2{fill:url(#SVGID_1_);}
	.st3{fill:none;stroke:#FFDB05;stroke-width:0.75;stroke-miterlimit:10;}
	.st4{fill:none;stroke:#FFDB05;stroke-width:0.5;stroke-miterlimit:10;}
	.st5{fill:none;stroke:#F7CD00;stroke-width:0.75;stroke-miterlimit:10;}
	.st6{fill:none;stroke:#F7CD00;stroke-width:0.5;stroke-miterlimit:10;}
	.st7{fill:#2A78A0;}
	.st8{fill:#C7DFF5;}
	.st9{font-family:'Ubuntu-Bold';}
	.st10{font-size:5.4128px;}
</style>
<g>
	<circle class="st0" cx="23.9" cy="25" r="5.3"/>
	<path class="st1" d="M42.6,25c0-0.3-0.1-0.5-0.1-0.5l-1.7-2.7l0.5-2.7c0.2-1.5-0.4-1.7-0.4-1.7s-2-1.4-2.4-1.7
		c-0.3-0.2-0.3-0.4-0.3-0.4s-0.4-1.2-0.6-2.5c-0.2-1.3-1.2-1.6-1.2-1.6s-2-0.5-2.4-0.5c-0.2,0-0.5-0.2-0.6-0.3
		c-0.1-0.1-0.1-0.1-0.2-0.2c-0.3-0.4-1.7-2.3-2-2.5c-0.3-0.3-0.7-0.2-0.7-0.2S29,7.7,28.1,7.9C27.2,8.1,27,7.9,27,7.9
		s-2.1-1.2-2.5-1.6c-0.4-0.4-0.7-0.4-0.7-0.4h-0.1h-0.1c0,0-0.3,0-0.7,0.4c-0.4,0.4-2.5,1.6-2.5,1.6s-0.2,0.1-1.1-0.1
		C18.6,7.7,17,7.5,17,7.5s-0.4-0.1-0.7,0.2c-0.2,0.2-1.7,2.1-2,2.5c-0.1,0.1-0.1,0.1-0.2,0.2c-0.1,0.1-0.3,0.3-0.6,0.3
		c-0.4,0.1-2.4,0.5-2.4,0.5s-1,0.2-1.2,1.6c-0.2,1.3-0.6,2.5-0.6,2.5s0,0.1-0.3,0.4c-0.4,0.3-2.4,1.7-2.4,1.7s-0.5,0.2-0.4,1.7
		l0.5,2.7l-1.7,2.7c0,0-0.1,0.2-0.1,0.5c0,0.3,0.1,0.5,0.1,0.5l1.7,2.7l-0.5,2.7c-0.2,1.5,0.4,1.7,0.4,1.7s2,1.4,2.4,1.7
		c0.3,0.2,0.3,0.4,0.3,0.4s0.4,1.2,0.6,2.5c0.2,1.3,1.2,1.6,1.2,1.6s2,0.5,2.4,0.5c0.2,0,0.5,0.2,0.6,0.3c0.1,0.1,0.1,0.1,0.2,0.2
		c0.3,0.4,1.7,2.3,2,2.5c0.3,0.3,0.7,0.2,0.7,0.2s1.6-0.2,2.4-0.4c0.9-0.2,1.1-0.1,1.1-0.1s2.1,1.2,2.5,1.6c0.4,0.4,0.7,0.4,0.7,0.4
		h0.1h0.1c0,0,0.3,0,0.7-0.4c0.4-0.4,2.5-1.6,2.5-1.6s0.2-0.1,1.1,0.1c0.9,0.2,2.4,0.4,2.4,0.4s0.4,0.1,0.7-0.2
		c0.2-0.2,1.7-2.1,2-2.5c0.1-0.1,0.1-0.1,0.2-0.2c0.1-0.1,0.3-0.3,0.6-0.3c0.4-0.1,2.4-0.5,2.4-0.5s1-0.2,1.2-1.6
		c0.2-1.3,0.6-2.5,0.6-2.5s0-0.1,0.3-0.4c0.4-0.3,2.4-1.7,2.4-1.7s0.5-0.2,0.4-1.7l-0.5-2.7l1.7-2.7C42.5,25.5,42.6,25.3,42.6,25z"
		/>
	
		<linearGradient id="SVGID_1_" gradientUnits="userSpaceOnUse" x1="23.7947" y1="1072.9382" x2="23.7947" y2="1037.0676" gradientTransform="matrix(1 0 0 -1 0 1080)">
		<stop  offset="0" style="stop-color:#FAED6B"/>
		<stop  offset="1" style="stop-color:#FFEC3C"/>
	</linearGradient>
	<path class="st2" d="M41.5,25c0-0.3-0.1-0.4-0.1-0.4L39.8,22l0.5-2.5c0.2-1.4-0.3-1.6-0.3-1.6s-1.9-1.4-2.2-1.6
		c-0.3-0.2-0.3-0.4-0.3-0.4s-0.4-1.2-0.6-2.4c-0.2-1.2-1.1-1.5-1.1-1.5s-1.9-0.4-2.3-0.5c-0.2,0-0.4-0.2-0.5-0.3
		c-0.1-0.1-0.1-0.1-0.2-0.2c-0.3-0.4-1.6-2.1-1.9-2.4c-0.3-0.3-0.7-0.2-0.7-0.2s-1.5,0.2-2.3,0.4c-0.8,0.2-1,0.1-1,0.1
		s-2-1.2-2.3-1.5c-0.3-0.3-0.6-0.4-0.6-0.4h-0.1h-0.1c0,0-0.3,0-0.6,0.4c-0.3,0.3-2.3,1.5-2.3,1.5s-0.2,0.1-1-0.1
		c-0.8-0.2-2.3-0.4-2.3-0.4s-0.4-0.1-0.7,0.2c-0.2,0.2-1.6,2-1.9,2.4c-0.1,0.1-0.1,0.1-0.2,0.2c-0.1,0.1-0.3,0.3-0.5,0.3
		C13.9,11.6,12,12,12,12s-1,0.2-1.1,1.5c-0.2,1.2-0.6,2.4-0.6,2.4s0,0.1-0.3,0.4c-0.3,0.3-2.2,1.6-2.2,1.6s-0.5,0.2-0.3,1.6L7.8,22
		l-1.6,2.5c0,0-0.1,0.2-0.1,0.4c0,0.3,0.1,0.4,0.1,0.4L7.8,28l-0.5,2.5c-0.2,1.4,0.3,1.6,0.3,1.6s1.9,1.4,2.2,1.6
		c0.3,0.2,0.3,0.4,0.3,0.4s0.4,1.2,0.6,2.4c0.2,1.2,1.1,1.5,1.1,1.5s1.9,0.4,2.3,0.5c0.2,0,0.4,0.2,0.5,0.3c0.1,0.1,0.1,0.1,0.2,0.2
		c0.3,0.4,1.6,2.1,1.9,2.4c0.3,0.3,0.7,0.2,0.7,0.2s1.5-0.2,2.3-0.4s1-0.1,1-0.1s2,1.2,2.3,1.5c0.3,0.3,0.6,0.4,0.6,0.4h0.1h0.1
		c0,0,0.3,0,0.6-0.4c0.3-0.3,2.3-1.5,2.3-1.5s0.2-0.1,1,0.1c0.8,0.2,2.3,0.4,2.3,0.4s0.4,0.1,0.7-0.2c0.2-0.2,1.6-2,1.9-2.4
		c0.1-0.1,0.1-0.1,0.2-0.2c0.1-0.1,0.3-0.3,0.5-0.3c0.4-0.1,2.3-0.5,2.3-0.5s1-0.2,1.1-1.5c0.2-1.2,0.6-2.4,0.6-2.4s0-0.1,0.3-0.4
		c0.3-0.3,2.2-1.6,2.2-1.6s0.5-0.2,0.3-1.6L39.8,28l1.6-2.5C41.4,25.4,41.5,25.3,41.5,25z"/>
	<path class="st3" d="M33.2,25c0,5.1-4.2,9.3-9.3,9.3s-9.3-4.2-9.3-9.3s4.2-9.3,9.3-9.3C29,15.7,33.2,19.9,33.2,25z"/>
	<path class="st4" d="M32.2,25c0,4.6-3.7,8.3-8.3,8.3s-8.3-3.7-8.3-8.3s3.7-8.3,8.3-8.3C28.5,16.7,32.2,20.4,32.2,25z"/>
	<path class="st5" d="M23.9,10.4c-8.1,0-14.6,6.6-14.6,14.6c0,0.2,0,0.5,0,0.7c0,0.1,0,0.2,0,0.3c0.1,1.9,0.6,3.7,1.4,5.3
		c0.1,0.1,0.1,0.2,0.2,0.4c0.6,1.1,1.2,2.1,2,3c0.6,0.7,1.3,1.3,2,1.9c2.5,1.9,5.6,3,8.9,3c0.2,0,0.4,0,0.5,0c1.3,0,2.5-0.3,3.7-0.6
		c6-1.8,10.3-7.4,10.3-14C38.5,16.9,32,10.4,23.9,10.4z"/>
	<path class="st6" d="M23.9,9.4c-8.6,0-15.6,7-15.6,15.6c0,0.3,0,0.5,0,0.8c0,0.1,0,0.2,0,0.3c0.1,2,0.7,3.9,1.5,5.6
		c0.1,0.1,0.1,0.2,0.2,0.4c0.6,1.2,1.3,2.2,2.2,3.2c0.7,0.7,1.4,1.4,2.2,2c2.6,2,5.9,3.2,9.5,3.2c0.2,0,0.4,0,0.6,0
		c1.4-0.1,2.7-0.3,4-0.7c6.4-2,11.1-7.9,11.1-15C39.5,16.4,32.5,9.4,23.9,9.4z"/>
	<g>
		<polygon class="st1" points="23.8,11.3 23.3,12.3 22.2,12.5 23,13.3 22.8,14.4 23.8,13.9 24.8,14.4 24.6,13.3 25.4,12.5 
			24.3,12.3 		"/>
		<polygon class="st1" points="19,12.7 18.9,13.6 18.1,14.1 19,14.4 19.1,15.4 19.8,14.7 20.7,14.8 20.2,14 20.6,13.1 19.7,13.3 		
			"/>
		<polygon class="st1" points="15.7,15.2 15.9,15.9 15.4,16.5 16.1,16.5 16.5,17.2 16.8,16.5 17.5,16.3 16.9,15.8 17,15.1 
			16.4,15.5 		"/>
		<polygon class="st1" points="28.5,12.7 28.6,13.6 29.5,14.1 28.6,14.4 28.5,15.4 27.8,14.7 26.9,14.8 27.4,14 27,13.1 27.9,13.3 
					"/>
		<polygon class="st1" points="31.9,15.2 31.7,15.9 32.2,16.5 31.5,16.5 31.1,17.2 30.8,16.5 30.1,16.3 30.7,15.8 30.6,15.1 
			31.2,15.5 		"/>
	</g>
	<g>
		<polygon class="st7" points="4.5,29.6 0.5,30.3 3.5,34.3 2.1,39.1 9.3,37.9 5.5,35.8 		"/>
		<path class="st7" d="M9.2,37.6c0,0-0.7-0.7-0.3-2.4L6,35.7L9.2,37.6z"/>
		<polygon class="st7" points="5.8,35.5 4,25.3 43,18.5 44.8,28.6 		"/>
		<path class="st7" d="M41.7,29.4c0,0,1,1.2,0.6,2.4l2.4-2.9L41.7,29.4z"/>
		<polygon class="st7" points="42.4,32.1 45.1,28.8 44,22.6 48,21.9 46.5,26.8 49.5,30.8 		"/>
	</g>
	<text transform="matrix(0.9872 -0.1597 0.1597 0.9872 8.7641 31.4304)" class="st8 st9 st10">CONQUISTA</text>
</g>
</svg>
