<?xml version="1.0" encoding="utf-8"?>
<!-- Generator: Adobe Illustrator 27.2.0, SVG Export Plug-In . SVG Version: 6.00 Build 0)  -->
<svg version="1.1" id="Camada_1" xmlns="http://www.w3.org/2000/svg" xmlns:xlink="http://www.w3.org/1999/xlink" x="0px" y="0px"
	 viewBox="0 0 750 147.2" style="enable-background:new 0 0 750 147.2;" xml:space="preserve">
<style type="text/css">
	.st0{fill:#F02D00;}
</style>
<path class="st0" d="M304.3,45.4h70.5v19.5H324v20.3h41.1v19.6H324v20.1h50.8v19.7h-70.5V45.4z M350.8,33.3l12.7-17.2L352.8,0
	l-13.3,18L326.2,0l-10.6,16l12.7,17.3H350.8z M547.1,144.7h20.2V45.4h-20.2V144.7z M453.9,65.5h31.3v79.2h20.3V65.5h31.3V45.4h-82.9
	V65.5z M693.2,104h21.4l-10.7-30.1L693.2,104z M714.6,45.4l35.4,99.3h-20.8l-7.4-21h-35.3l-7.5,21h-20.8l35-99.3H714.6z M141.6,44
	c28.3,0,51.4,23,51.2,51.2c0,28.2-23,51.2-51.2,51.2c-28.2,0-51.2-22.9-51.2-51.2C90.4,67,113.4,44,141.6,44 M141.6,125.6
	c16.8,0,30.4-13.6,30.4-30.4c0-16.7-13.6-30.3-30.4-30.3s-30.4,13.6-30.4,30.3C111.2,112,124.8,125.6,141.6,125.6 M35.6,45.3
	c27.3,0,49.6,22.2,49.5,49.6c0,27.4-22.2,49.6-49.6,49.6H0V45.3H35.6 M35.7,124.1C51.8,124.1,65,111,65,94.9
	c0-16.1-13.2-29.1-29.3-29.1H20.2v58.4H35.7 M247.2,92l-25.3-46.7h-22.7v99.3h20.1V81.9l27.9,51.2l27.7-51.2v62.8h20.2V45.4h-22.7
	L247.2,92z M656.6,45.4h-24.3l-32.9,43.8V45.4h-19.9v99.3h19.9v-21.5l9.8-13.4l23.4,34.9H657l-35.1-52.3L656.6,45.4z M435,91.7
	c-7.6-4.1-13.8-5.8-18.9-6.9c-4.9-1.2-8.8-2.1-11.9-4.7c-1.5-1.4-4.7-6.9-0.8-12c2.3-3.1,6.7-4.8,11.5-4.8c4.6,0,8.8,1.6,11.2,4.2
	c3.2,3.5,4.6,6.3,4.6,6.5l0.5,1.1l18.6-7.6l-0.1-0.2c-0.7-1.9-2.8-8.9-10.6-15.4c-6.1-5.2-14.7-8.2-23.9-8.2
	c-11.3-0.1-21.2,4.1-27.3,11.4c-6.3,7.6-8.7,16.7-6.7,25.4c2,8.6,8,15.9,16.7,19.9c6.7,3.1,10.8,4.1,14.8,5.2
	c3.3,0.8,6.3,1.6,10.8,3.5c4.7,1.9,6.9,5.3,6.2,9.1c-0.9,5.5-6.8,9.2-12,9.4h-2c-6.2,0-14.3-1.9-18.5-11.3l-18.7,7.8
	c1.4,3.3,4.8,10.8,13.2,16.5c6.5,4.3,15.2,6.9,23.7,6.9c14.8,0.1,26.9-6.8,32.6-18.3C454.6,114.7,449.6,99.7,435,91.7"/>
</svg>
