<?xml version="1.0" encoding="utf-8"?>
<!-- Generator: Adobe Illustrator 25.4.1, SVG Export Plug-In . SVG Version: 6.00 Build 0)  -->
<svg version="1.1" xmlns="http://www.w3.org/2000/svg" xmlns:xlink="http://www.w3.org/1999/xlink" x="0px" y="0px"
	 viewBox="0 0 48 48" style="enable-background:new 0 0 48 48;" xml:space="preserve">
<style type="text/css">
	.st0{display:none;}
	.st1{fill:none;stroke:#BCAB79;stroke-miterlimit:10;}
</style>
<g id="Camada_1" class="st0">
	
		<image style="display:inline;overflow:visible;" width="225" height="225" xlink:href="56563191.jpg"  transform="matrix(0.191 0 0 0.191 2.4616 2.2406)">
	</image>
</g>
<g id="Camada_2">
	<path class="st1" d="M8.8,43.1H4.9 M43.1,4.9v3.9 M8.8,43.1h31.1c1.8,0,3.2-1.4,3.2-3.2V8.8 M43.1,4.9V4.2c0-1.8-1.4-3.2-3.2-3.2
		H4.2C2.4,1,1,2.4,1,4.2v35.7c0,1.8,1.4,3.2,3.2,3.2h0.7 M4.9,43.1v0.7c0,1.8,1.4,3.2,3.2,3.2h0.7 M8.8,47h35c1.8,0,3.2-1.4,3.2-3.2
		v-35 M47,8.8V8.1c0-1.8-1.4-3.2-3.2-3.2h-0.7 M42.9,40.9L28,19.8c-0.4-0.6-1.4-0.6-1.8,0L14.7,36.1 M19.6,43.1l-4.9-7l-3.5-4.9
		c-0.4-0.6-1.4-0.6-1.8,0L1.8,42 M15.2,14.7c-2.7,0-4.9,2.2-4.9,4.9s2.2,4.9,4.9,4.9s4.9-2.2,4.9-4.9S18,14.7,15.2,14.7z"/>
</g>
</svg>
