<?xml version="1.0" encoding="utf-8"?>
<!-- Generator: Adobe Illustrator 25.4.1, SVG Export Plug-In . SVG Version: 6.00 Build 0)  -->
<svg version="1.1" id="Camada_1" xmlns="http://www.w3.org/2000/svg" xmlns:xlink="http://www.w3.org/1999/xlink" x="0px" y="0px"
	 viewBox="0 0 48 48" style="enable-background:new 0 0 48 48;" xml:space="preserve">
<style type="text/css">
	.st0{fill:#BCAB79;}
</style>
<g>
	<path class="st0" d="M22.4,22.1c-0.1-0.4-0.3-0.9-0.4-1.3c-0.1-0.4-0.3-0.9-0.4-1.3c-0.1-0.4-0.2-0.8-0.3-1.1h0
		c-0.1,0.6-0.3,1.2-0.5,1.9c-0.2,0.7-0.4,1.4-0.7,2.1c-0.2,0.7-0.4,1.4-0.6,2h3.7c-0.1-0.3-0.2-0.7-0.3-1
		C22.7,23,22.6,22.5,22.4,22.1z"/>
	<path class="st0" d="M37,6H11c-2.8,0-5,2.2-5,5v26c0,2.8,2.2,5,5,5h26c2.8,0,5-2.2,5-5V11C42,8.2,39.8,6,37,6z M28.5,30.9h-3
		c-0.1,0-0.2-0.1-0.2-0.2L24,27.3h-5.4l-1.1,3.4c0,0.1-0.1,0.2-0.3,0.2h-2.7c-0.2,0-0.2-0.1-0.2-0.3l4.7-13.4c0-0.1,0.1-0.3,0.1-0.5
		c0.1-0.3,0.1-0.6,0.1-0.9c0-0.1,0-0.1,0.1-0.2h0h3.7c0.1,0,0.2,0,0.2,0.1l5.3,14.9C28.7,30.9,28.6,30.9,28.5,30.9z M33.5,30.8
		c0,0.2-0.1,0.2-0.2,0.2h-2.8c-0.1,0-0.2-0.1-0.2-0.2V19.6c0-0.1,0.1-0.2,0.2-0.2h2.9c0.1,0,0.2,0.1,0.2,0.2V30.8z M33.2,17.7
		c-0.3,0.3-0.8,0.5-1.3,0.5c-0.5,0-0.9-0.2-1.3-0.5c-0.3-0.4-0.5-0.8-0.5-1.3c0-0.5,0.2-1,0.5-1.3s0.8-0.5,1.3-0.5
		c0.6,0,1,0.2,1.3,0.5c0.3,0.3,0.5,0.8,0.5,1.3C33.7,16.9,33.5,17.3,33.2,17.7z"/>
</g>
</svg>
