<?xml version="1.0" encoding="utf-8"?>
<!-- Generator: Adobe Illustrator 25.4.1, SVG Export Plug-In . SVG Version: 6.00 Build 0)  -->
<svg version="1.1" xmlns="http://www.w3.org/2000/svg" xmlns:xlink="http://www.w3.org/1999/xlink" x="0px" y="0px"
	 viewBox="0 0 48 48" style="enable-background:new 0 0 48 48;" xml:space="preserve">
<style type="text/css">
	.st0{fill:#253031;}
</style>
<g id="Camada_2">
</g>
<g id="Camada_1">
	<g>
		<path class="st0" d="M27.6,40.8l1.4,2.9H19l1.4-2.9H27.6z"/>
		<path class="st0" d="M32.6,46.6H15.4c0-1.6,1.3-2.9,2.9-2.9h11.4C31.3,43.7,32.6,45,32.6,46.6C32.6,46.5,32.6,46.6,32.6,46.6z"/>
		<path class="st0" d="M46.1,35.1v4.3c0,0.8-0.6,1.4-1.4,1.4H3.3c-0.8,0-1.4-0.6-1.4-1.4v-4.3H46.1z"/>
		<g>
			<path class="st0" d="M44.7,11.6c0.4,0,0.7,0.3,0.7,0.7v22.1H2.6V12.3c0-0.4,0.3-0.7,0.7-0.7H44.7 M44.7,10.8H3.3
				c-0.8,0-1.4,0.6-1.4,1.4v22.9h44.3V12.3C46.1,11.5,45.5,10.8,44.7,10.8L44.7,10.8z"/>
		</g>
		<g>
			<path class="st0" d="M13,20.7h1.8c0.2,0,0.4-0.2,0.4-0.4v-0.8c0-0.2-0.2-0.4-0.4-0.4H13c-0.4,0-0.8,0.4-0.8,0.8
				C12.2,20.3,12.6,20.7,13,20.7z"/>
			<path class="st0" d="M20.8,30.1c-0.9,0-1.6,0.7-1.6,1.6c0,0.9,0.7,1.6,1.6,1.6c0.9,0,1.6-0.7,1.6-1.6
				C22.4,30.8,21.7,30.1,20.8,30.1z M20.8,32.3c-0.3,0-0.6-0.3-0.6-0.6s0.3-0.6,0.6-0.6s0.6,0.3,0.6,0.6S21.1,32.3,20.8,32.3z"/>
			<path class="st0" d="M26.7,30.1c-0.9,0-1.6,0.7-1.6,1.6c0,0.9,0.7,1.6,1.6,1.6c0.9,0,1.6-0.7,1.6-1.6
				C28.3,30.8,27.6,30.1,26.7,30.1z M26.7,32.3c-0.3,0-0.6-0.3-0.6-0.6s0.3-0.6,0.6-0.6s0.6,0.3,0.6,0.6S27,32.3,26.7,32.3z"/>
			<path class="st0" d="M29.4,21.5H17.2l0.5,7.3h8.8c0.9,0,1.6-0.6,1.9-1.4l1.6-5.1C30.2,21.9,29.9,21.5,29.4,21.5L29.4,21.5z
				 M21.2,26.2c0,0.3-0.2,0.5-0.5,0.5s-0.5-0.2-0.5-0.5v-2.1c0-0.3,0.2-0.5,0.5-0.5s0.5,0.2,0.5,0.5V26.2z M23.7,26.2
				c0,0.3-0.2,0.5-0.5,0.5c-0.3,0-0.5-0.2-0.5-0.5v-2.1c0-0.3,0.2-0.5,0.5-0.5c0.3,0,0.5,0.2,0.5,0.5V26.2z M26.1,26.2
				c0,0.3-0.2,0.5-0.5,0.5c-0.3,0-0.5-0.2-0.5-0.5v-2.1c0-0.3,0.2-0.5,0.5-0.5c0.3,0,0.5,0.2,0.5,0.5V26.2z"/>
			<path class="st0" d="M29.4,21.5h-1.1c0.4,0,0.7,0.4,0.6,0.8l-1.6,5.1c-0.3,0.8-1,1.4-1.9,1.4h1.1c0.9,0,1.6-0.6,1.9-1.4l1.6-5.1
				C30.2,21.9,29.9,21.5,29.4,21.5L29.4,21.5z"/>
			<g>
				<path class="st0" d="M20.2,31.7c0-0.2,0.1-0.4,0.3-0.5h-2c-0.4,0-0.6-0.3-0.7-0.6l-0.8-10.2c0-0.6-0.5-1-1.1-1h-1.1
					c-0.3,0-0.5,0.2-0.5,0.5c0,0.3,0.2,0.5,0.5,0.5H16c0,0,0,0,0,0l0.8,10.2c0.1,0.9,0.8,1.6,1.7,1.6h2
					C20.4,32.1,20.2,31.9,20.2,31.7z"/>
				<path class="st0" d="M26.5,31.2h-5.4c0.2,0.1,0.3,0.3,0.3,0.5c0,0.2-0.1,0.4-0.3,0.5h5.4c-0.2-0.1-0.3-0.3-0.3-0.5
					C26.1,31.5,26.3,31.3,26.5,31.2z"/>
				<path class="st0" d="M28.9,31.2H27c0.2,0.1,0.3,0.3,0.3,0.5c0,0.2-0.1,0.4-0.3,0.5h1.9c0.3,0,0.5-0.2,0.5-0.5
					C29.4,31.4,29.1,31.2,28.9,31.2z"/>
			</g>
		</g>
	</g>
	<g>
		<path class="st0" d="M-66,36.1l1.4,2.9h-10l1.4-2.9H-66z"/>
		<path class="st0" d="M-61,41.9h-17.1c0-1.6,1.3-2.9,2.9-2.9h11.4C-62.3,39-61,40.3-61,41.9C-61,41.9-61,41.9-61,41.9z"/>
		<path class="st0" d="M-47.5,30.4v4.3c0,0.8-0.6,1.4-1.4,1.4h-41.4c-0.8,0-1.4-0.6-1.4-1.4v-4.3H-47.5z"/>
		<g>
			<path class="st0" d="M-48.9,6.9c0.4,0,0.7,0.3,0.7,0.7v22.1H-91V7.6c0-0.4,0.3-0.7,0.7-0.7H-48.9 M-48.9,6.1h-41.4
				c-0.8,0-1.4,0.6-1.4,1.4v22.9h44.3V7.6C-47.5,6.8-48.1,6.1-48.9,6.1L-48.9,6.1z"/>
		</g>
	</g>
	<g>
		<g>
			<path class="st0" d="M45.4,3v0.7H2.6V3H45.4 M45.7,2.2H2.3c-0.2,0-0.4,0.2-0.4,0.4V4c0,0.2,0.2,0.4,0.4,0.4h43.4
				c0.2,0,0.4-0.2,0.4-0.4V2.6C46.1,2.4,45.9,2.2,45.7,2.2L45.7,2.2z"/>
		</g>
		<path class="st0" d="M3.1,4.4v6.4h41.9V4.4H3.1z M8.2,8.8C8.2,9,8.1,9.1,8,9.1H5.5C5.4,9.1,5.3,9,5.3,8.8V6.4
			c0-0.1,0.1-0.3,0.3-0.3H8c0.1,0,0.3,0.1,0.3,0.3V8.8z M34.7,8.3c0,0.2-0.2,0.4-0.4,0.4H13.8c-0.2,0-0.4-0.2-0.4-0.4V6.9
			c0-0.2,0.2-0.4,0.4-0.4h20.5c0.2,0,0.4,0.2,0.4,0.4V8.3z M42.7,8.8c0,0.1-0.1,0.3-0.3,0.3H40c-0.1,0-0.3-0.1-0.3-0.3V6.4
			c0-0.1,0.1-0.3,0.3-0.3h2.4c0.1,0,0.3,0.1,0.3,0.3V8.8z"/>
		<path class="st0" d="M14.5,10.8v5.1c0,1.7,1.4,3.1,3.2,3.1c1.7,0,3.2-1.4,3.2-3.1v-5.1H14.5z"/>
		<g>
			<path class="st0" d="M26.4,11.6v4.3c0,1.3-1.1,2.4-2.4,2.4s-2.4-1.1-2.4-2.4v-4.3H26.4 M27.2,10.8h-6.3v5.1
				c0,1.7,1.4,3.1,3.2,3.1s3.2-1.4,3.2-3.1V10.8L27.2,10.8z"/>
		</g>
		<path class="st0" d="M27.2,10.8v5.1c0,1.7,1.4,3.1,3.2,3.1c1.7,0,3.2-1.4,3.2-3.1v-5.1H27.2z"/>
		<g>
			<path class="st0" d="M39.1,11.6v4.3c0,1.3-1.1,2.4-2.4,2.4s-2.4-1.1-2.4-2.4v-4.3H39.1 M39.8,10.8h-6.3v5.1
				c0,1.7,1.4,3.1,3.2,3.1s3.2-1.4,3.2-3.1V10.8L39.8,10.8z"/>
		</g>
		<path class="st0" d="M39.8,10.8v5.1c0,1.7,1.4,3.1,3.2,3.1c1.7,0,3.2-1.4,3.2-3.1v-4.4c0-0.4-0.3-0.7-0.7-0.7H39.8z"/>
		<g>
			<path class="st0" d="M13.8,11.6v4.3c0,1.3-1.1,2.4-2.4,2.4s-2.4-1.1-2.4-2.4v-4.3H13.8 M14.5,10.8H8.2v5.1c0,1.7,1.4,3.1,3.2,3.1
				s3.2-1.4,3.2-3.1V10.8L14.5,10.8z"/>
		</g>
		<path class="st0" d="M2.3,10.8h5.9v5.1C8.2,17.6,6.8,19,5,19s-3.2-1.4-3.2-3.1v-4.6C1.9,11,2,10.8,2.3,10.8z"/>
	</g>
</g>
</svg>
