<?xml version="1.0" encoding="utf-8"?>
<!-- Generator: Adobe Illustrator 25.4.1, SVG Export Plug-In . SVG Version: 6.00 Build 0)  -->
<svg version="1.1" id="Camada_1" xmlns="http://www.w3.org/2000/svg" xmlns:xlink="http://www.w3.org/1999/xlink" x="0px" y="0px"
	 viewBox="0 0 48 48" style="enable-background:new 0 0 48 48;" xml:space="preserve">
<style type="text/css">
	.st0{fill:#BCAB79;}
</style>
<g>
	<path class="st0" d="M20.8,18.6c-0.6-0.2-1.2-0.3-1.8-0.3c-0.4,0-0.7,0-1,0c-0.3,0-0.5,0-0.6,0v5c0.2,0,0.4,0,0.6,0h0.8
		c0.6,0,1.2-0.1,1.7-0.3c0.5-0.1,0.9-0.4,1.2-0.8c0.3-0.4,0.5-0.9,0.5-1.5c0-0.5-0.1-0.9-0.3-1.3C21.6,19.1,21.2,18.8,20.8,18.6z"/>
	<path class="st0" d="M37,6H11c-2.8,0-5,2.2-5,5v26c0,2.8,2.2,5,5,5h26c2.8,0,5-2.2,5-5V11C42,8.2,39.8,6,37,6z M24.5,23.9
		c-0.6,0.8-1.4,1.5-2.4,1.8c-1,0.4-2.1,0.5-3.4,0.5c-0.4,0-0.6,0-0.8,0s-0.4,0-0.6,0V31c0,0.1-0.1,0.2-0.2,0.2c0,0,0,0-0.1,0h-2.8
		c-0.1,0-0.2-0.1-0.2-0.2V15.6c0-0.1,0-0.2,0.2-0.2c0.3,0,0.5,0,0.8,0c0.4,0,0.7,0,1.1,0c0.4,0,0.8,0,1.3,0c0.5,0,0.9,0,1.4,0
		c1.2,0,2.2,0.2,3.1,0.5c0.8,0.3,1.4,0.7,2,1.2c0.5,0.5,0.9,1.1,1.1,1.7c0.2,0.6,0.3,1.3,0.3,2C25.4,22,25.1,23.1,24.5,23.9z
		 M35.2,29.8c-0.4,0.6-1,1.1-1.7,1.3c-0.7,0.3-1.6,0.5-2.7,0.5c-0.7,0-1.4-0.1-2-0.2c-0.5-0.1-1-0.3-1.5-0.5
		c-0.1-0.1-0.2-0.2-0.2-0.3V28c0,0,0-0.1,0.1-0.1c0,0,0.1,0,0.1,0c0.6,0.3,1.2,0.6,1.9,0.7c0.6,0.2,1.2,0.2,1.8,0.2
		c0.6,0,1-0.1,1.2-0.2c0.2-0.1,0.4-0.4,0.4-0.6c0-0.2-0.1-0.4-0.4-0.6c-0.2-0.2-0.7-0.4-1.5-0.7c-0.8-0.3-1.5-0.6-2.1-1.1
		c-0.5-0.3-0.9-0.8-1.1-1.3c-0.2-0.5-0.4-1-0.3-1.5c0-0.6,0.2-1.3,0.5-1.8c0.4-0.6,0.9-1.1,1.6-1.4c0.7-0.4,1.6-0.5,2.7-0.5
		c0.6,0,1.2,0,1.9,0.1c0.5,0.1,0.9,0.2,1.3,0.3c0.1,0,0.1,0.1,0.1,0.1c0,0.1,0,0.1,0,0.2v2.4c0,0.1,0,0.1-0.1,0.1
		c-0.1,0-0.2,0-0.3,0c-0.5-0.2-0.9-0.4-1.4-0.5c-0.6-0.1-1.1-0.2-1.7-0.2c-0.3,0-0.6,0-0.9,0.1c-0.2,0-0.4,0.1-0.5,0.3
		c-0.1,0.1-0.1,0.3-0.1,0.4c0,0.1,0.1,0.3,0.1,0.4c0.1,0.2,0.3,0.3,0.5,0.4c0.3,0.2,0.7,0.3,1.1,0.5c0.8,0.3,1.6,0.6,2.3,1.1
		c0.5,0.3,0.9,0.7,1.2,1.2c0.2,0.5,0.4,1,0.3,1.5C35.8,28.5,35.6,29.2,35.2,29.8z"/>
</g>
</svg>
