<?xml version="1.0" encoding="utf-8"?>
<!-- Generator: Adobe Illustrator 25.4.1, SVG Export Plug-In . SVG Version: 6.00 Build 0)  -->
<svg version="1.1" id="Camada_1" xmlns="http://www.w3.org/2000/svg" xmlns:xlink="http://www.w3.org/1999/xlink" x="0px" y="0px"
	 viewBox="0 0 48 48" style="enable-background:new 0 0 48 48;" xml:space="preserve">
<style type="text/css">
	.st0{fill:#B2A174;}
	.st1{fill:#A5946D;}
	.st2{fill:#BCAB79;}
</style>
<g>
	<path class="st0" d="M6.2,18.6c0,0-0.9-0.6,0.2-1.5l2.5-2.2c0,0,0.7-0.7,1.5-0.1L33.1,32v8.3c0,0,0,1.3-1.7,1.2L6.2,18.6z"/>
	<path class="st1" d="M12.1,23.9l-5.9,5.3c0,0-0.6,0.4,0,1.3L8.9,33c0,0,0.6,0.7,1.6-0.1l6.2-4.7L12.1,23.9z"/>
	<path class="st1" d="M22.4,23.9l10.8-8.2l-0.1-8.2c0,0-0.5-1.8-2-0.9l-14.3,13L22.4,23.9z"/>
	<path class="st2" d="M31.4,41.5c0.6,0.6,1.4,0.4,1.4,0.4l8.4-4.1c1.1-0.7,0.9-1.6,0.9-1.6V11.4c0-1.1-1.1-1.5-1.1-1.5l-7.3-3.5
		c-1.6-1-2.6,0.2-2.6,0.2s1.3-1,2,0.9v32.6c0,0.2,0,0.4-0.1,0.6C32.8,41.2,32.3,41.5,31.4,41.5L31.4,41.5z"/>
</g>
</svg>
